<?xml version="1.0" standalone="no"?>
<!DOCTYPE svg PUBLIC "-//W3C//DTD SVG 20010904//EN"
 "http://www.w3.org/TR/2001/REC-SVG-20010904/DTD/svg10.dtd">
<svg version="1.0" xmlns="http://www.w3.org/2000/svg"
 width="100.000000pt" height="100.000000pt" viewBox="0 0 100.000000 100.000000"
 preserveAspectRatio="xMidYMid meet">

<g transform="translate(0.000000,100.000000) scale(0.100000,-0.100000)"
fill="#000000" stroke="none">
<path d="M277 873 c-15 -18 -17 -51 -17 -375 0 -338 1 -356 19 -372 17 -16 38
-17 173 -14 146 3 155 4 200 30 66 39 92 97 92 203 0 88 -15 129 -60 164 l-26
21 25 29 c52 62 59 185 14 253 -40 59 -82 72 -252 76 -138 4 -151 2 -168 -15z
m298 -128 c34 -33 34 -93 1 -132 -22 -25 -31 -28 -105 -31 l-81 -4 0 96 0 96
80 0 c73 0 83 -3 105 -25z m11 -288 c23 -20 28 -34 32 -84 5 -70 -15 -118 -54
-133 -14 -6 -59 -10 -100 -10 l-74 0 0 125 0 125 84 0 c75 0 88 -3 112 -23z"/>
</g>
</svg>
